<svg xmlns="http://www.w3.org/2000/svg" width="288" height="322">
  <g fill="none" fill-rule="evenodd">
    <ellipse cx="141" cy="162.5" fill="#FFF" stroke="#979797" stroke-width="7" opacity=".040851" rx="111" ry="111.5"/>
    <g fill="#474350" opacity=".5">
      <path d="M143.830599 23.5384615c6.4915751 0 11.6926563-5.256923 11.6926563-11.7692307C155.5232553 5.25692308 150.3221741 0 143.830599 0c-6.4915751 0-11.7317623 5.25692308-11.7317623 11.7692308 0 6.5123077 5.2401872 11.7692307 11.7317623 11.7692307zM116.94186 45.5769231v9.8076923h55.1162791v-9.8076923c0-9.1407693-18.385216-13.7307693-27.5581396-13.7307693s-27.5581395 4.59-27.5581395 13.7307693z"/>
    </g>
    <text fill="#474350" font-family="Montserrat-Regular, Montserrat" font-size="10" transform="translate(105)">
      <tspan x="-3.36" y="70.1923077">Passangers going</tspan>
    </text>
    <text fill="#474350" font-family="Montserrat-Bold, Montserrat" font-size="23" font-weight="bold" transform="translate(105)">
      <tspan x="-3.5" y="99.7307692">NORTH</tspan>
    </text>
    <path fill="#3DA7DC" d="M135.01967846 44.71794833c-1.18461538 0-2.14307692 1.05-2.14307692 2.33333334V61.3818277c0 1.1061089.89032524 2.0027873 1.99750848 2.0027873H154.4042938c1.1846154 0 2.1538462-1.05 2.1538462-2.3333333V47.05128167c0-1.28333334-.9692308-2.33333334-2.1538462-2.33333334h-19.38461534z"/>
    <text fill="#FFF" font-family="Montserrat-Medium, Montserrat" font-size="14" font-weight="400" transform="translate(132.55814 43.384615)">
      <tspan x="7.87" y="14">2</tspan>
    </text>
    <g>
      <g fill="#474350" opacity=".5">
        <path d="M143.830599 249.5384615c6.4915751 0 11.6926563-5.256923 11.6926563-11.7692307 0-6.51230772-5.2010812-11.7692308-11.6926563-11.7692308-6.4915751 0-11.7317623 5.25692308-11.7317623 11.7692308 0 6.5123077 5.2401872 11.7692307 11.7317623 11.7692307zM116.94186 271.5769231v9.8076923h55.1162791v-9.8076923c0-9.1407693-18.385216-13.7307693-27.5581396-13.7307693s-27.5581395 4.59-27.5581395 13.7307693z"/>
      </g>
      <text fill="#474350" font-family="Montserrat-Regular, Montserrat" font-size="10" transform="translate(105 226)">
        <tspan x="-3.36" y="70.1923077">Passangers going</tspan>
      </text>
      <text fill="#474350" font-family="Montserrat-Bold, Montserrat" font-size="23" font-weight="bold" transform="translate(105 226)">
        <tspan x="-2" y="99.7307692">SOUTH</tspan>
      </text>
      <path fill="#3DA7DC" d="M135.01967846 270.71794833c-1.18461538 0-2.14307692 1.05-2.14307692 2.33333334v14.33054603c0 1.1061089.89032524 2.0027873 1.99750848 2.0027873H154.4042938c1.1846154 0 2.1538462-1.05 2.1538462-2.3333333v-14.00000003c0-1.28333334-.9692308-2.33333334-2.1538462-2.33333334h-19.38461534z"/>
      <text fill="#FFF" font-family="Montserrat-Medium, Montserrat" font-size="14" font-weight="400" transform="translate(132.55814 269.384615)">
        <tspan x="7.569" y="14">6</tspan>
      </text>
    </g>
    <g opacity=".45900763">
      <g fill="#474350" opacity=".5">
        <path d="M247.830599 137.5384615c6.4915751 0 11.6926563-5.256923 11.6926563-11.7692307 0-6.51230772-5.2010812-11.7692308-11.6926563-11.7692308-6.4915751 0-11.7317623 5.25692308-11.7317623 11.7692308 0 6.5123077 5.2401872 11.7692307 11.7317623 11.7692307zM220.94186 159.5769231v9.8076923h55.1162791v-9.8076923c0-9.1407693-18.385216-13.7307693-27.5581396-13.7307693s-27.5581395 4.59-27.5581395 13.7307693z"/>
      </g>
      <text fill="#474350" font-family="Montserrat-Regular, Montserrat" font-size="10" transform="translate(209 114)">
        <tspan x="-3.36" y="70.1923077">Passangers going</tspan>
      </text>
      <text fill="#474350" font-family="Montserrat-Bold, Montserrat" font-size="23" font-weight="bold" transform="translate(209 114)">
        <tspan x="8" y="99.7307692">EAST</tspan>
      </text>
      <path fill="#3DA7DC" d="M239.01967846 158.71794833c-1.18461538 0-2.14307692 1.05-2.14307692 2.33333334v14.33054603c0 1.1061089.89032524 2.0027873 1.99750848 2.0027873H258.4042938c1.1846154 0 2.1538462-1.05 2.1538462-2.3333333v-14.00000003c0-1.28333334-.9692308-2.33333334-2.1538462-2.33333334h-19.38461534z"/>
      <text fill="#FFF" font-family="Montserrat-Medium, Montserrat" font-size="14" font-weight="400" transform="translate(236.55814 157.384615)">
        <tspan x="7.058" y="14">0</tspan>
      </text>
    </g>
    <g>
      <g fill="#474350" opacity=".5">
        <path d="M38.830599 137.5384615c6.4915751 0 11.6926563-5.256923 11.6926563-11.7692307C50.5232553 119.25692308 45.3221741 114 38.830599 114c-6.4915751 0-11.7317623 5.25692308-11.7317623 11.7692308 0 6.5123077 5.2401872 11.7692307 11.7317623 11.7692307zM11.94186 159.5769231v9.8076923h55.1162791v-9.8076923c0-9.1407693-18.385216-13.7307693-27.5581396-13.7307693s-27.5581395 4.59-27.5581395 13.7307693z"/>
      </g>
      <text fill="#474350" font-family="Montserrat-Regular, Montserrat" font-size="10" transform="translate(0 114)">
        <tspan x="-3.36" y="70.1923077">Passangers going</tspan>
      </text>
      <text fill="#474350" font-family="Montserrat-Bold, Montserrat" font-size="23" font-weight="bold" transform="translate(0 114)">
        <tspan x="4" y="99.7307692">WEST</tspan>
      </text>
      <path fill="#3DA7DC" d="M30.01967846 158.71794833c-1.18461538 0-2.14307692 1.05-2.14307692 2.33333334v14.33054603c0 1.1061089.89032524 2.0027873 1.99750848 2.0027873H49.4042938c1.1846154 0 2.1538462-1.05 2.1538462-2.3333333v-14.00000003c0-1.28333334-.9692308-2.33333334-2.1538462-2.33333334H30.01967846z"/>
      <text fill="#FFF" font-family="Montserrat-Medium, Montserrat" font-size="14" font-weight="400" transform="translate(27.55814 157.384615)">
        <tspan x="9.326" y="14">1</tspan>
      </text>
    </g>
  </g>
</svg>
