<?xml version="1.0" encoding="UTF-8"?>
<svg width="288px" height="322px" viewBox="0 0 288 322" version="1.1" xmlns="http://www.w3.org/2000/svg" xmlns:xlink="http://www.w3.org/1999/xlink">
    <!-- Generator: Sketch 51.3 (57544) - http://www.bohemiancoding.com/sketch -->
    <title>Group</title>
    <desc>Created with Sketch.</desc>
    <defs></defs>
    <g id="Driver" stroke="none" stroke-width="1" fill="none" fill-rule="evenodd">
        <g id="01_01_B_Home" transform="translate(-36.000000, -187.000000)">
            <g id="Group" transform="translate(36.000000, 187.000000)">
                <ellipse id="Oval" stroke="#979797" stroke-width="7" fill="#FFFFFF" opacity="0.040851" cx="141" cy="162.5" rx="111" ry="111.5"></ellipse>
                <g id="Passangers-Going-B" transform="translate(105.000000, 0.000000)">
                    <g id="Group" opacity="0.5" stroke-width="1" fill-rule="evenodd" transform="translate(11.941860, 0.000000)" fill="#474350">
                        <path d="M26.888739,23.5384615 C33.3803141,23.5384615 38.5813953,18.2815385 38.5813953,11.7692308 C38.5813953,5.25692308 33.3803141,0 26.888739,0 C20.3971639,0 15.1569767,5.25692308 15.1569767,11.7692308 C15.1569767,18.2815385 20.3971639,23.5384615 26.888739,23.5384615 L26.888739,23.5384615 Z" id="Path"></path>
                        <path d="M0,45.5769231 L0,55.3846154 L55.1162791,55.3846154 L55.1162791,45.5769231 C55.1162791,36.4361538 36.7310631,31.8461538 27.5581395,31.8461538 C18.3852159,31.8461538 0,36.4361538 0,45.5769231 Z" id="Path"></path>
                    </g>
                    <text id="Passangers-going" font-family="Montserrat-Regular, Montserrat" font-size="10" font-weight="normal" line-spacing="19" fill="#474350">
                        <tspan x="-3.36" y="70.1923077">Passangers going</tspan>
                    </text>
                    <text id="NORTH" font-family="Montserrat-Bold, Montserrat" font-size="23" font-weight="bold" line-spacing="19" fill="#474350">
                        <tspan x="-3.5" y="99.7307692">NORTH</tspan>
                    </text>
                    <g id="1" transform="translate(27.558140, 43.384615)" fill-rule="evenodd" stroke-width="1">
                        <g id="Icon-24px">
                            <path d="M2.46153846,1.33333333 C1.27692308,1.33333333 0.318461538,2.38333333 0.318461538,3.66666667 L0.318461538,17.9972127 C0.318461538,19.1033216 1.20878678,20 2.31597002,20 L4.61538462,20 L21.8461538,20 C23.0307692,20 24,18.95 24,17.6666667 L24,3.66666667 C24,2.38333333 23.0307692,1.33333333 21.8461538,1.33333333 L2.46153846,1.33333333 Z" id="Shape" fill="#3DA7DC"></path>
                            <text id="0" font-family="Montserrat-Medium, Montserrat" font-size="14" font-weight="400" line-spacing="21.2800001" fill="#FFFFFF">
                                <tspan x="7.87" y="14">2</tspan>
                            </text>
                        </g>
                    </g>
                </g>
                <g id="Passangers-Going-B" transform="translate(105.000000, 226.000000)">
                    <g id="Group" opacity="0.5" stroke-width="1" fill-rule="evenodd" transform="translate(11.941860, 0.000000)" fill="#474350">
                        <path d="M26.888739,23.5384615 C33.3803141,23.5384615 38.5813953,18.2815385 38.5813953,11.7692308 C38.5813953,5.25692308 33.3803141,0 26.888739,0 C20.3971639,0 15.1569767,5.25692308 15.1569767,11.7692308 C15.1569767,18.2815385 20.3971639,23.5384615 26.888739,23.5384615 L26.888739,23.5384615 Z" id="Path"></path>
                        <path d="M0,45.5769231 L0,55.3846154 L55.1162791,55.3846154 L55.1162791,45.5769231 C55.1162791,36.4361538 36.7310631,31.8461538 27.5581395,31.8461538 C18.3852159,31.8461538 0,36.4361538 0,45.5769231 Z" id="Path"></path>
                    </g>
                    <text id="Passangers-going" font-family="Montserrat-Regular, Montserrat" font-size="10" font-weight="normal" line-spacing="19" fill="#474350">
                        <tspan x="-3.36" y="70.1923077">Passangers going</tspan>
                    </text>
                    <text id="NORTH" font-family="Montserrat-Bold, Montserrat" font-size="23" font-weight="bold" line-spacing="19" fill="#474350">
                        <tspan x="-2" y="99.7307692">SOUTH</tspan>
                    </text>
                    <g id="1" transform="translate(27.558140, 43.384615)" fill-rule="evenodd" stroke-width="1">
                        <g id="Icon-24px">
                            <path d="M2.46153846,1.33333333 C1.27692308,1.33333333 0.318461538,2.38333333 0.318461538,3.66666667 L0.318461538,17.9972127 C0.318461538,19.1033216 1.20878678,20 2.31597002,20 L4.61538462,20 L21.8461538,20 C23.0307692,20 24,18.95 24,17.6666667 L24,3.66666667 C24,2.38333333 23.0307692,1.33333333 21.8461538,1.33333333 L2.46153846,1.33333333 Z" id="Shape" fill="#3DA7DC"></path>
                            <text id="0" font-family="Montserrat-Medium, Montserrat" font-size="14" font-weight="400" line-spacing="21.2800001" fill="#FFFFFF">
                                <tspan x="7.569" y="14">6</tspan>
                            </text>
                        </g>
                    </g>
                </g>
                <g id="Passangers-Going-B" opacity="0.459007626" transform="translate(209.000000, 114.000000)">
                    <g id="Group" opacity="0.5" stroke-width="1" fill-rule="evenodd" transform="translate(11.941860, 0.000000)" fill="#474350">
                        <path d="M26.888739,23.5384615 C33.3803141,23.5384615 38.5813953,18.2815385 38.5813953,11.7692308 C38.5813953,5.25692308 33.3803141,0 26.888739,0 C20.3971639,0 15.1569767,5.25692308 15.1569767,11.7692308 C15.1569767,18.2815385 20.3971639,23.5384615 26.888739,23.5384615 L26.888739,23.5384615 Z" id="Path"></path>
                        <path d="M0,45.5769231 L0,55.3846154 L55.1162791,55.3846154 L55.1162791,45.5769231 C55.1162791,36.4361538 36.7310631,31.8461538 27.5581395,31.8461538 C18.3852159,31.8461538 0,36.4361538 0,45.5769231 Z" id="Path"></path>
                    </g>
                    <text id="Passangers-going" font-family="Montserrat-Regular, Montserrat" font-size="10" font-weight="normal" line-spacing="19" fill="#474350">
                        <tspan x="-3.36" y="70.1923077">Passangers going</tspan>
                    </text>
                    <text id="NORTH" font-family="Montserrat-Bold, Montserrat" font-size="23" font-weight="bold" line-spacing="19" fill="#474350">
                        <tspan x="8" y="99.7307692">EAST</tspan>
                    </text>
                    <g id="1" transform="translate(27.558140, 43.384615)" fill-rule="evenodd" stroke-width="1">
                        <g id="Icon-24px">
                            <path d="M2.46153846,1.33333333 C1.27692308,1.33333333 0.318461538,2.38333333 0.318461538,3.66666667 L0.318461538,17.9972127 C0.318461538,19.1033216 1.20878678,20 2.31597002,20 L4.61538462,20 L21.8461538,20 C23.0307692,20 24,18.95 24,17.6666667 L24,3.66666667 C24,2.38333333 23.0307692,1.33333333 21.8461538,1.33333333 L2.46153846,1.33333333 Z" id="Shape" fill="#3DA7DC"></path>
                            <text id="0" font-family="Montserrat-Medium, Montserrat" font-size="14" font-weight="400" line-spacing="21.2800001" fill="#FFFFFF">
                                <tspan x="7.058" y="14">0</tspan>
                            </text>
                        </g>
                    </g>
                </g>
                <g id="Passangers-Going-B" transform="translate(0.000000, 114.000000)">
                    <g id="Group" opacity="0.5" stroke-width="1" fill-rule="evenodd" transform="translate(11.941860, 0.000000)" fill="#474350">
                        <path d="M26.888739,23.5384615 C33.3803141,23.5384615 38.5813953,18.2815385 38.5813953,11.7692308 C38.5813953,5.25692308 33.3803141,0 26.888739,0 C20.3971639,0 15.1569767,5.25692308 15.1569767,11.7692308 C15.1569767,18.2815385 20.3971639,23.5384615 26.888739,23.5384615 L26.888739,23.5384615 Z" id="Path"></path>
                        <path d="M0,45.5769231 L0,55.3846154 L55.1162791,55.3846154 L55.1162791,45.5769231 C55.1162791,36.4361538 36.7310631,31.8461538 27.5581395,31.8461538 C18.3852159,31.8461538 0,36.4361538 0,45.5769231 Z" id="Path"></path>
                    </g>
                    <text id="Passangers-going" font-family="Montserrat-Regular, Montserrat" font-size="10" font-weight="normal" line-spacing="19" fill="#474350">
                        <tspan x="-3.36" y="70.1923077">Passangers going</tspan>
                    </text>
                    <text id="NORTH" font-family="Montserrat-Bold, Montserrat" font-size="23" font-weight="bold" line-spacing="19" fill="#474350">
                        <tspan x="4" y="99.7307692">WEST</tspan>
                    </text>
                    <g id="1" transform="translate(27.558140, 43.384615)" fill-rule="evenodd" stroke-width="1">
                        <g id="Icon-24px">
                            <path d="M2.46153846,1.33333333 C1.27692308,1.33333333 0.318461538,2.38333333 0.318461538,3.66666667 L0.318461538,17.9972127 C0.318461538,19.1033216 1.20878678,20 2.31597002,20 L4.61538462,20 L21.8461538,20 C23.0307692,20 24,18.95 24,17.6666667 L24,3.66666667 C24,2.38333333 23.0307692,1.33333333 21.8461538,1.33333333 L2.46153846,1.33333333 Z" id="Shape" fill="#3DA7DC"></path>
                            <text id="0" font-family="Montserrat-Medium, Montserrat" font-size="14" font-weight="400" line-spacing="21.2800001" fill="#FFFFFF">
                                <tspan x="9.326" y="14">1</tspan>
                            </text>
                        </g>
                    </g>
                </g>
            </g>
        </g>
    </g>
</svg>